<svg clip-rule="evenodd" fill-rule="evenodd" stroke-linejoin="round" stroke-miterlimit="2" viewBox="0 0 560 400" xmlns="http://www.w3.org/2000/svg" xmlns:xlink="http://www.w3.org/1999/xlink"><linearGradient id="a" gradientTransform="matrix(-10.6926 -3.2929 3.2929 -10.6926 13.3704 6.92382)" gradientUnits="userSpaceOnUse" x1="0" x2="1" y1="0" y2="0"><stop offset="0" stop-color="#daecd1"/><stop offset="1" stop-color="#51b748"/></linearGradient><radialGradient id="b" cx="27.6312" cy="28.1958" gradientUnits="userSpaceOnUse" r="9.39647"><stop offset="0" stop-color="#f0f8ff"/><stop offset="1" stop-color="#0296d6"/></radialGradient><radialGradient id="c" cx="21.2093" cy="21.2064" gradientUnits="userSpaceOnUse" r="7.55563"><stop offset="0" stop-color="#fafafa" stop-opacity=".47"/><stop offset="1" stop-color="#fff" stop-opacity="0"/></radialGradient><g transform="matrix(2.97459 0 0 2.97459 30 158.065)"><g fill-rule="nonzero"><path d="m37.583.932h4.024l4.62 14.044h1.254v2.747h-3.858l-1.087-3.641h-5.904l-1.087 3.641h-3.925v-2.738h1.29l4.664-14.044zm2.023 3.143-2.237 7.426h4.428zm13.762 2.404c1.359-1.421 2.19-1.833 3.644-1.833 1.422 0 2.239.525 3.048 1.976.621-.668 1.81-1.976 3.859-1.976 2.05 0 3.451 1.452 3.451 3.617v6.975h1.19v2.485h-4.308v-8.568c0-1.118-.524-1.788-1.359-1.788-1.309 0-2.521 1.667-2.521 3.454v4.426h1.238v2.476h-4.359v-8.443c0-1.287-.418-1.906-1.335-1.906-1.404 0-2.595 1.719-2.547 3.74v4.14h1.248v2.469h-5.429v-2.477h1.069v-7.774h-1.101v-2.496h4.213v1.503m28.765 7.044c-.571 2.762-2.885 4.476-5.977 4.476-3.571 0-6.193-2.784-6.193-6.688 0-3.857 2.643-6.714 6.215-6.714 2.024 0 3.812.95 4.908 2.595 1.164 1.784 1.212 3.477 1.254 4.76h-9.185c.31 3.31 2.476 3.477 3.072 3.477 1.26 0 2.095-.595 2.595-1.906zm-3.261-3.762c-.216-1.619-1.19-2.507-2.693-2.507-1.381 0-2.452.926-2.855 2.507zm9.358-2.807c.832-1.619 1.761-2.287 3.19-2.287.429 0 .809.049 1.428.169v2.974c-.57-.118-1.023-.164-1.547-.164-1.667 0-3.071 1.187-3.071 2.64v4.952h1.524v2.485h-5.883v-2.477h1.239v-7.774h-1.215v-2.496h4.335v1.977m5.977-1.977h4.332v10.261h1.072v2.486h-5.455v-2.477h1.264v-7.774h-1.212v-2.496zm.926-1.78h3.428v-3.01h-3.428zm14.883 12.088c-.5.597-1.589 1.881-3.857 1.881-3.011 0-5.145-2.594-5.145-6.212 0-3.69 2.189-6.238 5.359-6.238 1.212 0 2.212.455 3.642 1.643v-1.382h4.31v2.478h-1.167v9.809c0 3.047-2.285 4.855-6.121 4.855-1.882 0-3.333-.43-4.355-1.308-.812-.669-1.144-1.254-1.527-2.789h3.072c.429 1.17 1.254 1.669 2.763 1.669 1.833 0 3.025-.955 3.025-2.382v-2.023zm-5.739-4.285c0 2.284.999 3.572 2.81 3.572 1.717 0 2.954-1.524 2.954-3.666 0-2.048-1.168-3.549-2.741-3.549-1.84 0-3.022 1.421-3.022 3.643zm16.286-4.046c.833-1.619 1.761-2.287 3.19-2.287.428 0 .81.049 1.429.169v2.974c-.508-.11-1.027-.165-1.547-.163-1.669 0-3.073 1.187-3.073 2.64v4.951h1.524v2.486h-5.882v-2.477h1.239v-7.774h-1.216v-2.496h4.336zm17.835 4.358c0 3.809-2.689 6.709-6.271 6.709-3.693 0-6.406-2.856-6.406-6.709 0-3.835 2.74-6.714 6.406-6.714 3.476 0 6.271 2.976 6.271 6.714zm-9.382-.05c0 2.403 1.196 4.024 3.01 4.024 1.88 0 3.072-1.547 3.072-4.024 0-2.285-1.286-3.926-3.072-3.926-1.785 0-3.01 1.589-3.01 3.926zm10.737-6.285h4.36v8.238c0 1.477.597 2.215 1.84 2.215 1.525 0 2.904-1.595 2.904-3.344v-4.639h-1.251v-2.47h4.356v10.261h1.167v2.486h-4.218v-1.548c-1.14.951-2.235 1.854-4.117 1.854-2.429 0-3.811-1.498-3.811-4.138v-6.437h-1.24v-2.478m19.157 1.294c1.02-1.07 2.356-1.671 3.76-1.671 3.192 0 5.429 2.785 5.429 6.808 0 3.831-2.341 6.614-5.524 6.614-1.475 0-2.453-.474-3.664-1.783v3.068h1.212v2.481h-5.5v-2.481h1.144v-11.851h-1.144v-2.479h4.288v1.294zm.905 1.909c-.669.663-.883 1.505-.883 3.141 0 1.618.263 2.523.926 3.213.549.527 1.311.881 1.978.881 1.81 0 2.977-1.545 2.977-3.973 0-2.598-1.118-4.192-2.977-4.192-.738 0-1.454.334-2.022.931zm-132.44 17.741v-.487h.418c.184 0 .352.027.352.238 0 .281-.291.251-.5.251h-.262zm-.002.173h.322l.419.663h.214l-.444-.663c.25-.024.46-.129.46-.418 0-.27-.126-.413-.519-.413h-.64v1.494h.188zm.299 1.237c.723 0 1.306-.589 1.306-1.313s-.582-1.31-1.306-1.31c-.723.001-1.31.587-1.311 1.31 0 .725.587 1.312 1.311 1.313zm0-.206c-.638 0-1.104-.463-1.104-1.108 0-.637.465-1.105 1.104-1.105s1.101.468 1.101 1.105c0 .644-.465 1.108-1.101 1.108z" fill="#008abe"/><path d="m31.364 25.711v2.278h134.942l.767-2.278z" fill="#008abe"/><path d="m1.99 9.364c-1.378-.307-2.241-1.636-1.925-2.969.316-1.334 1.684-2.17 3.063-1.864.175.037.345.093.508.167-.16-.078-.311-.172-.451-.282-1.105-.854-1.288-2.416-.405-3.483.882-1.068 2.489-1.246 3.596-.395.167.131.316.276.439.436l6.953 8.452h-11.155c-.205.003-.414-.015-.622-.062z" fill="url(#a)" transform="translate(0 3.77957)"/></g><g transform="translate(1.63523)"><path d="m1.992 14.167c.209-.048.419-.07.619-.067h11.201l-7.028-8.813c-.112-.144-.21-.299-.291-.464-.615-1.277-.077-2.811 1.201-3.426 1.277-.614 2.812-.077 3.427 1.2.077.161.137.329.179.503-.035-.175-.053-.353-.054-.532-.001-1.417 1.148-2.567 2.565-2.568.681 0 1.335.271 1.816.752.482.482.752 1.135.751 1.816 0 .178-.016.355-.051.529.041-.173.101-.34.179-.5.614-1.279 2.147-1.814 3.425-1.198 1.277.614 1.814 2.147 1.2 3.424-.081.165-.178.32-.29.464.115-.14.245-.267.389-.384.533-.425 1.212-.621 1.889-.545s1.296.418 1.72.95c.884 1.11.701 2.725-.404 3.607-.144.116-.298.213-.455.291.167-.072.33-.132.508-.174 1.383-.315 2.76.552 3.078 1.923.317 1.371-.551 2.756-1.93 3.07-.184.045-.362.062-.541.067.182.003.363.025.541.067 1.382.316 2.246 1.692 1.93 3.074-.317 1.382-1.694 2.246-3.076 1.93-.174-.042-.344-.101-.507-.176.156.075.31.176.453.287 1.106.887 1.287 2.5.405 3.609-.424.533-1.043.875-1.72.951s-1.357-.12-1.889-.544c-.141-.112-.269-.239-.382-.378.108.139.202.292.284.46.614 1.276.077 2.809-1.2 3.424-1.276.613-2.809.077-3.424-1.197-.081-.164-.138-.332-.182-.5.037.174.055.352.054.53 0 .68-.27 1.333-.752 1.815-.481.481-1.135.752-1.816.752-1.417-.002-2.565-1.151-2.564-2.567 0-.182.016-.36.053-.53-.043.172-.103.336-.179.5-.614 1.277-2.149 1.811-3.428 1.199-1.278-.619-1.815-2.148-1.2-3.427.08-.165.178-.322.291-.467-.115.142-.245.271-.391.385-1.108.886-2.722.702-3.607-.407-.884-1.108-.705-2.721.403-3.609.144-.109.296-.211.455-.287-.163.075-.334.134-.509.176-1.382.314-2.757-.55-3.072-1.931-.318-1.381.547-2.762 1.929-3.073z" fill="#fff" fill-rule="nonzero"/><path d="m2.612 14.1h11.2l-7.028-8.813c-.112-.144-.21-.299-.291-.464-.615-1.277-.077-2.811 1.201-3.426 1.277-.614 2.812-.077 3.427 1.2.077.161.137.329.179.503-.035-.175-.053-.353-.054-.532-.001-1.417 1.148-2.567 2.565-2.568.681 0 1.335.271 1.816.752.482.482.752 1.135.751 1.816 0 .178-.016.355-.051.529.041-.173.101-.34.179-.5.614-1.279 2.147-1.814 3.425-1.198 1.277.614 1.814 2.147 1.2 3.424-.081.165-.178.32-.29.464.115-.14.245-.267.389-.384.533-.425 1.212-.621 1.889-.545s1.296.418 1.72.95c.884 1.11.701 2.725-.404 3.607-.144.116-.298.213-.455.291.167-.072.33-.132.508-.174 1.383-.315 2.76.552 3.078 1.923.317 1.371-.551 2.756-1.93 3.07-.184.045-.362.062-.541.067.182.003.363.025.541.067 1.382.316 2.246 1.692 1.93 3.074-.317 1.382-1.694 2.246-3.076 1.93-.174-.042-.344-.101-.507-.176.156.075.31.176.453.287 1.106.887 1.287 2.5.405 3.609-.424.533-1.043.875-1.72.951s-1.357-.12-1.889-.544c-.141-.112-.269-.239-.382-.378.108.139.202.292.284.46.614 1.276.077 2.809-1.2 3.424-1.276.613-2.809.077-3.424-1.197-.081-.164-.138-.332-.182-.5.037.174.055.352.054.53 0 .68-.27 1.333-.752 1.815-.481.481-1.135.752-1.816.752-1.417-.002-2.565-1.151-2.564-2.567 0-.182.016-.36.053-.53-.043.172-.103.336-.179.5-.614 1.277-2.149 1.811-3.428 1.199-1.278-.619-1.815-2.148-1.2-3.427.08-.165.178-.322.291-.467-.115.142-.245.271-.391.385-1.108.886-2.722.702-3.607-.407-.884-1.108-.705-2.721.403-3.609.144-.109.296-.211.455-.287-.163.075-.334.134-.509.176-1.382.314-2.757-.55-3.072-1.931-.318-1.381.547-2.762 1.929-3.073.209-.048.418-.071.619-.067z" fill="url(#b)" fill-rule="nonzero"/><ellipse cx="13.656" cy="13.656" fill="url(#c)" rx="7.553" ry="7.55"/></g></g></svg>